<svg width="68" height="69" viewBox="0 0 68 69" fill="none" xmlns="http://www.w3.org/2000/svg">
<path d="M33.983 5.0332C22.4604 5.0332 13.1296 14.0851 13.0798 25.3493C13.0798 29.3942 14.2834 33.2453 16.5172 36.5365L16.7359 36.8481L16.8628 37.0589L16.9671 37.2176C17.0374 37.3207 17.1122 37.4193 17.196 37.5168L17.2482 37.5735L30.541 53.0344C30.9674 53.53 31.496 53.9275 32.0905 54.1997C32.6849 54.4719 33.3312 54.6122 33.985 54.6111C34.6388 54.6101 35.2846 54.4676 35.8782 54.1935C36.4718 53.9193 36.999 53.5201 37.4238 53.0231L50.6441 37.5599L50.5568 37.6562C50.6873 37.5199 50.8059 37.3728 50.9116 37.2165L51.0136 37.0601C51.0555 36.9943 51.1371 36.8561 51.1348 36.8606C53.4786 33.5853 54.7932 29.5937 54.842 25.3867C54.842 14.1101 45.4863 5.0332 33.983 5.0332ZM33.983 9.56654C43.0122 9.56654 50.3086 16.6453 50.3086 25.3595C50.2779 28.5721 49.2581 31.6972 47.388 34.3095L47.192 34.62L33.9773 50.0787L20.6833 34.6177L20.5552 34.4058L20.4895 34.3095C18.6145 31.7023 17.6081 28.5709 17.6131 25.3595C17.6528 16.6272 24.9299 9.56654 33.983 9.56654Z" fill="#333333"/>
<path d="M52.0495 47.9632C52.5421 47.6758 53.125 47.5846 53.6819 47.7079C54.2388 47.8312 54.7287 48.1599 55.0539 48.6285L55.1491 48.7781L60.0225 57.1274C60.4127 57.7959 60.6253 58.5532 60.6399 59.3272C60.6545 60.1012 60.4706 60.866 60.1059 61.5487C59.7411 62.2315 59.2076 62.8095 58.5562 63.2277C57.9048 63.6459 57.1571 63.8902 56.3845 63.9376L56.0819 63.9455L11.8524 63.7041C11.0815 63.6998 10.3243 63.499 9.6526 63.1207C8.98087 62.7423 8.41674 62.1989 8.01353 61.5418C7.61032 60.8846 7.38136 60.1356 7.34829 59.3653C7.31522 58.5951 7.47913 57.8291 7.82453 57.1398L7.9662 56.878L12.6106 48.9583C12.906 48.4512 13.3866 48.0784 13.9512 47.9184C14.5159 47.7583 15.1206 47.8236 15.6381 48.1003C16.1556 48.3771 16.5457 48.8438 16.7261 49.4022C16.9066 49.9607 16.8634 50.5674 16.6056 51.0946L16.5217 51.251L11.8773 59.1708L56.1068 59.4122L51.2335 51.0629C50.9307 50.5436 50.8466 49.9254 50.9996 49.3441C51.1526 48.7628 51.5303 48.2661 52.0495 47.9632Z" fill="#333333"/>
<path d="M34 16.6992C32.8092 16.6994 31.6301 16.9341 30.53 17.3899C29.4299 17.8457 28.4304 18.5138 27.5884 19.3559C26.7465 20.198 26.0787 21.1978 25.6232 22.298C25.1676 23.3982 24.9332 24.5774 24.9333 25.7682C24.9335 26.959 25.1682 28.1381 25.624 29.2382C26.0799 30.3383 26.7479 31.3378 27.59 32.1797C28.4322 33.0216 29.4319 33.6894 30.5321 34.145C31.6323 34.6006 32.8115 34.835 34.0023 34.8348C36.4072 34.8345 38.7135 33.8789 40.4139 32.1781C42.1142 30.4774 43.0692 28.1708 43.0689 25.7659C43.0686 23.361 42.113 21.0546 40.4123 19.3543C38.7115 17.654 36.4049 16.6989 34 16.6992ZM34 21.2326C35.2026 21.2329 36.3559 21.7109 37.206 22.5615C38.0562 23.4121 38.5336 24.5655 38.5333 25.7682C38.533 26.9708 38.055 28.124 37.2044 28.9742C36.3538 29.8243 35.2004 30.3018 33.9978 30.3015C32.7951 30.3012 31.6419 29.8232 30.7917 28.9726C29.9416 28.122 29.4641 26.9685 29.4644 25.7659C29.4647 24.5633 29.9427 23.41 30.7933 22.5599C31.6439 21.7097 32.7974 21.2323 34 21.2326Z" fill="#333333"/>
</svg>
