<svg width="68" height="69" viewBox="0 0 68 69" fill="none" xmlns="http://www.w3.org/2000/svg">
<path d="M43.1577 42.0899C40.1525 39.7512 36.7599 38.4097 33.8493 38.4097C32.3755 38.4097 30.7956 39.1584 29.3501 39.9875C28.4278 38.7668 27.0762 36.8636 26.4024 35.6874C25.7765 34.591 25.0359 32.9166 24.4944 31.4265C25.5496 30.993 26.5117 30.4556 27.1673 29.7008C29.3744 27.1629 30.296 23.037 29.6964 18.3812C28.8342 11.6904 24.518 6.16293 19.8703 5.79836C17.2061 5.59314 14.0504 6.26153 11.8346 7.51257C8.58842 9.3463 6.26792 12.5121 5.12426 16.667C2.99886 24.3908 5.06351 34.8306 10.647 44.594C17.3681 56.3437 27.8256 64.2383 36.6694 64.2383C39.0912 64.2383 41.3232 63.6704 43.3035 62.5517C44.3912 61.9387 48.0134 59.6796 48.9566 56.3795C50.0611 52.5142 49.1187 46.7302 43.1577 42.0899ZM44.9678 55.2399C44.589 56.5659 42.835 58.0532 41.2639 58.9397C39.9129 59.7033 38.3675 60.0902 36.6694 60.0902C29.3805 60.0902 20.1606 52.8707 14.2483 42.5349C9.27577 33.8402 7.31176 24.3503 9.12389 17.7682C9.97998 14.6571 11.5787 12.4217 13.8743 11.1247C15.1975 10.378 17.1697 9.90876 18.8805 9.90876C19.1073 9.90876 19.3302 9.91752 19.5455 9.93444C21.5601 10.0924 24.8691 13.3805 25.5821 18.912C26.0175 22.2911 25.4254 25.3826 24.0394 26.9774C23.8976 27.1299 23.4034 27.4702 21.6865 28.034C19.6374 28.7064 19.7609 30.1094 19.9095 30.684C20.4462 32.7459 21.7162 35.8475 22.8018 37.7468C23.5931 39.1295 25.0001 41.0779 25.4126 41.6424C27.193 44.0791 27.7068 44.7164 28.8754 44.7164C29.525 44.7164 29.9355 44.4686 30.6801 44.019C31.279 43.6578 33.1012 42.558 33.8493 42.558C35.8254 42.558 38.3525 43.6065 40.6096 45.3632C44.9408 48.7348 45.701 52.6756 44.9678 55.2399Z" fill="#333333"/>
<path d="M35.9159 19.252C34.7702 19.252 33.8419 20.1803 33.8419 21.326V23.3495C33.8419 24.4952 34.7702 25.4236 35.9159 25.4236C37.0617 25.4236 37.99 24.4953 37.99 23.3495V21.326C37.99 20.1803 37.0617 19.252 35.9159 19.252Z" fill="#333333"/>
<path d="M52.1041 19.252C50.9584 19.252 50.03 20.1803 50.03 21.326V23.3495C50.03 24.4952 50.9583 25.4236 52.1041 25.4236C53.2498 25.4236 54.1781 24.4953 54.1781 23.3495V21.326C54.1781 20.1803 53.2498 19.252 52.1041 19.252Z" fill="#333333"/>
<path d="M49.1248 28.6448C48.1748 28.021 46.8941 28.2863 46.2588 29.2268C46.25 29.2396 45.3547 30.5386 43.9896 30.5386C42.6622 30.5386 41.8358 29.3355 41.7805 29.2518C41.1708 28.2951 39.9015 28.0021 38.936 28.6043C37.9631 29.2086 37.6641 30.4873 38.269 31.4602C39.0137 32.6586 41.056 34.6868 43.9896 34.6868C46.9089 34.6868 48.9769 32.6735 49.7385 31.4846C50.3509 30.5285 50.0727 29.2694 49.1248 28.6448Z" fill="#333333"/>
<path d="M38.9171 4.78125C36.4055 4.78125 33.9263 5.15126 31.5485 5.88108C30.4541 6.21732 29.8384 7.37791 30.1745 8.47298C30.5108 9.5667 31.6666 10.1831 32.7664 9.84694C34.7487 9.23794 36.8187 8.92943 38.9171 8.92943C50.3299 8.92943 59.6146 18.0973 59.6146 29.3663C59.6146 35.3556 56.9659 41.0235 52.3479 44.9171C51.4722 45.6557 51.3608 46.9641 52.0988 47.8399C52.5093 48.3266 53.0953 48.5771 53.6861 48.5771C54.158 48.5771 54.6326 48.4171 55.0215 48.089C60.5766 43.4055 63.7627 36.581 63.7627 29.3664C63.7627 15.8099 52.6173 4.78125 38.9171 4.78125Z" fill="#333333"/>
</svg>
