<svg width="68" height="69" viewBox="0 0 68 69" fill="none" xmlns="http://www.w3.org/2000/svg">
<path d="M17 34.5009L22.4187 41.7259C22.7569 42.1767 22.9021 42.7435 22.8224 43.3014C22.7427 43.8593 22.4446 44.3627 21.9937 44.7009C21.5429 45.039 20.9761 45.1842 20.4182 45.1045C19.8603 45.0248 19.3569 44.7267 19.0187 44.2759L12.6437 35.7759C12.3675 35.4082 12.2182 34.9607 12.2182 34.5009C12.2182 34.041 12.3675 33.5935 12.6437 33.2259L19.0187 24.7259C19.3569 24.275 19.8603 23.9769 20.4182 23.8972C20.9761 23.8175 21.5429 23.9627 21.9937 24.3009C22.4446 24.639 22.7427 25.1424 22.8224 25.7003C22.9021 26.2583 22.7569 26.825 22.4187 27.2759L17 34.5009ZM44.5187 41.7259C44.1806 42.1767 44.0354 42.7435 44.1151 43.3014C44.1948 43.8593 44.4929 44.3627 44.9437 44.7009C45.3946 45.039 45.9613 45.1842 46.5193 45.1045C47.0772 45.0248 47.5806 44.7267 47.9187 44.2759L54.2937 35.7759C54.5699 35.4082 54.7193 34.9607 54.7193 34.5009C54.7193 34.041 54.5699 33.5935 54.2937 33.2259L47.9187 24.7259C47.5806 24.275 47.0772 23.9769 46.5193 23.8972C45.9613 23.8175 45.3946 23.9627 44.9437 24.3009C44.4929 24.639 44.1948 25.1424 44.1151 25.7003C44.0354 26.2583 44.1806 26.825 44.5187 27.2759L49.9375 34.5009L44.5187 41.7259ZM33.4177 43.462C33.3615 43.7387 33.2507 44.0014 33.0918 44.2347C32.9329 44.4681 32.7291 44.6675 32.4923 44.8212C32.2555 44.9749 31.9904 45.0799 31.7126 45.1301C31.4347 45.1802 31.1497 45.1744 30.8741 45.1132C30.5985 45.0519 30.3379 44.9363 30.1074 44.7732C29.877 44.61 29.6814 44.4026 29.532 44.163C29.3827 43.9234 29.2825 43.6565 29.2375 43.3778C29.1925 43.0991 29.2034 42.8142 29.2697 42.5397L33.5197 23.4147C33.576 23.1381 33.6867 22.8754 33.8456 22.642C34.0045 22.4086 34.2083 22.2092 34.4451 22.0555C34.682 21.9018 34.947 21.7968 35.2249 21.7467C35.5027 21.6965 35.7878 21.7023 36.0634 21.7635C36.339 21.8248 36.5996 21.9404 36.83 22.1035C37.0605 22.2667 37.2561 22.4741 37.4054 22.7137C37.5548 22.9533 37.6549 23.2202 37.7 23.4989C37.745 23.7777 37.734 24.0625 37.6677 24.337L33.4177 43.462Z" fill="#333333"/>
<path d="M10.625 10.0625C10.0614 10.0625 9.52091 10.2864 9.1224 10.6849C8.72388 11.0834 8.5 11.6239 8.5 12.1875V57.875C8.5 58.4386 8.72388 58.9791 9.1224 59.3776C9.52091 59.7761 10.0614 60 10.625 60H56.3125C56.8761 60 57.4166 59.7761 57.8151 59.3776C58.2136 58.9791 58.4375 58.4386 58.4375 57.875V12.1875C58.4375 11.6239 58.2136 11.0834 57.8151 10.6849C57.4166 10.2864 56.8761 10.0625 56.3125 10.0625H10.625ZM10.625 5.8125H56.3125C58.0033 5.8125 59.6248 6.48415 60.8203 7.67969C62.0159 8.87524 62.6875 10.4967 62.6875 12.1875V57.875C62.6875 59.5658 62.0159 61.1873 60.8203 62.3828C59.6248 63.5784 58.0033 64.25 56.3125 64.25H10.625C8.93425 64.25 7.31274 63.5784 6.11719 62.3828C4.92165 61.1873 4.25 59.5658 4.25 57.875V12.1875C4.25 10.4967 4.92165 8.87524 6.11719 7.67969C7.31274 6.48415 8.93425 5.8125 10.625 5.8125Z" fill="#333333"/>
</svg>
