<svg width="68" height="69" viewBox="0 0 68 69" fill="none" xmlns="http://www.w3.org/2000/svg">
<path d="M54.8233 47.2506C56.1163 47.2506 57.1096 48.3957 56.927 49.6758C56.7776 50.7228 55.881 51.5006 54.8233 51.5006H19.1246C17.9055 51.5006 16.8719 50.6042 16.6995 49.3974L11.3333 11.834H58.8743C60.6999 11.834 62.1023 13.4509 61.8441 15.2582L58.4513 39.0082C58.2401 40.4862 56.9744 41.584 55.4814 41.584H53.7908L56.9428 19.508C57.2008 17.7008 55.7984 16.084 53.9729 16.084H19.691C17.8654 16.084 16.4631 17.7009 16.7212 19.5081L20.472 45.7711C20.5933 46.62 21.3203 47.2506 22.1779 47.2506H54.8233ZM25.5 54.334C27.0029 54.334 28.4442 54.931 29.5069 55.9937C30.5696 57.0564 31.1666 58.4978 31.1666 60.0006C31.1666 61.5035 30.5696 62.9449 29.5069 64.0076C28.4442 65.0703 27.0029 65.6673 25.5 65.6673C23.9971 65.6673 22.5557 65.0703 21.493 64.0076C20.4303 62.9449 19.8333 61.5035 19.8333 60.0006C19.8333 58.4978 20.4303 57.0564 21.493 55.9937C22.5557 54.931 23.9971 54.334 25.5 54.334ZM25.5 58.584C25.1243 58.584 24.7639 58.7332 24.4982 58.9989C24.2326 59.2646 24.0833 59.6249 24.0833 60.0006C24.0833 60.3764 24.2326 60.7367 24.4982 61.0024C24.7639 61.2681 25.1243 61.4173 25.5 61.4173C25.8757 61.4173 26.236 61.2681 26.5017 61.0024C26.7674 60.7367 26.9166 60.3764 26.9166 60.0006C26.9166 59.6249 26.7674 59.2646 26.5017 58.9989C26.236 58.7332 25.8757 58.584 25.5 58.584ZM48.1666 54.334C49.6695 54.334 51.1109 54.931 52.1736 55.9937C53.2363 57.0564 53.8333 58.4978 53.8333 60.0006C53.8333 61.5035 53.2363 62.9449 52.1736 64.0076C51.1109 65.0703 49.6695 65.6673 48.1666 65.6673C46.6637 65.6673 45.2224 65.0703 44.1597 64.0076C43.097 62.9449 42.5 61.5035 42.5 60.0006C42.5 58.4978 43.097 57.0564 44.1597 55.9937C45.2224 54.931 46.6637 54.334 48.1666 54.334ZM48.1666 58.584C47.7909 58.584 47.4306 58.7332 47.1649 58.9989C46.8992 59.2646 46.75 59.6249 46.75 60.0006C46.75 60.3764 46.8992 60.7367 47.1649 61.0024C47.4306 61.2681 47.7909 61.4173 48.1666 61.4173C48.5424 61.4173 48.9027 61.2681 49.1684 61.0024C49.4341 60.7367 49.5833 60.3764 49.5833 60.0006C49.5833 59.6249 49.4341 59.2646 49.1684 58.9989C48.9027 58.7332 48.5424 58.584 48.1666 58.584Z" fill="#333333"/>
<path d="M4.26135 5.64844C4.26135 4.47483 5.21275 3.52344 6.38635 3.52344H12.6088C13.6462 3.52344 14.526 4.28539 14.6743 5.31209L16.2549 16.2593L12.0474 16.8656L10.7355 7.77344H6.38635C5.21275 7.77344 4.26135 6.82204 4.26135 5.64844Z" fill="#333333"/>
<path d="M17 37.334H56.6667V38.584C56.6667 40.2408 55.3235 41.584 53.6667 41.584H17V37.334Z" fill="#333333"/>
</svg>
