<svg width="85" height="85" viewBox="0 0 85 85" fill="none" xmlns="http://www.w3.org/2000/svg">
<path d="M42.4926 2.24219C20.2676 2.24219 2.24609 20.2602 2.24609 42.4922C2.24609 60.2792 13.7751 75.3642 29.7736 80.6912C31.7826 81.0517 32.4196 79.8652 32.4196 78.7977C32.4196 77.8387 32.4406 75.1682 32.4196 71.8082C21.2266 74.2372 18.9061 66.5057 18.9061 66.5057C17.0756 61.8542 14.4436 60.6187 14.4436 60.6187C10.7861 58.1197 14.7131 58.1722 14.7131 58.1722C18.7486 58.4522 20.8801 62.3162 20.8801 62.3162C24.4711 68.4692 30.2986 66.6912 32.5911 65.6622C32.9621 63.0652 33.9981 61.2837 35.1496 60.2862C26.2106 59.2642 16.8166 55.8167 16.8166 40.3852C16.8166 35.9927 18.3846 32.4017 20.9606 29.5842C20.5476 28.5727 19.1616 24.4742 21.3526 18.9337C21.3526 18.9337 24.7371 17.8522 32.4196 23.0637C35.7048 22.1677 39.0944 21.711 42.4996 21.7057C45.9156 21.7232 49.3596 22.1677 52.5796 23.0637C60.2621 17.8557 63.6361 18.9337 63.6361 18.9337C65.8306 24.4742 64.4481 28.5727 64.0351 29.5842C66.6111 32.4017 68.1756 35.9927 68.1756 40.3852C68.1756 55.8552 58.7641 59.2537 49.7971 60.2442C51.2391 61.4937 52.5516 63.9087 52.5516 67.6642V78.8082C52.5516 79.8862 53.2026 81.0727 55.2466 80.6842C71.2276 75.3537 82.7461 60.2722 82.7461 42.4922C82.7461 20.2602 64.7281 2.24219 42.4926 2.24219Z" fill="black"/>
</svg>
