<svg width="290" height="268" viewBox="0 0 290 268" fill="none" xmlns="http://www.w3.org/2000/svg">
<path d="M81.9904 11.7975C92.1851 24.6795 136.035 80.089 145.313 91.8193L103.148 133.984C77.9594 114.043 26.5809 73.3921 1.13684 53.2587C0.838249 53.0241 0.838249 52.6402 1.11551 52.3629L46.1171 7.38268C55.7572 -2.25747 71.6251 -1.31905 80.0709 9.34484L81.9904 11.7975Z" fill="white"/>
<path d="M23.1258 197.307C36.0078 187.112 91.4173 143.262 103.148 133.984L145.313 176.149C129.658 195.942 101.228 231.857 79.9856 258.688C71.5611 269.352 55.736 270.226 46.1385 260.629L0.625 215.115L23.1258 197.307Z" fill="white"/>
<path d="M208.656 256.191C198.461 243.309 154.612 187.899 145.334 176.169L187.499 134.004C212.687 153.945 264.066 194.596 289.51 214.729C289.808 214.964 289.808 215.348 289.531 215.625L244.529 260.606C234.889 270.246 219.021 269.307 210.576 258.643L208.656 256.191Z" fill="white"/>
<path d="M267.521 70.6638C254.639 80.8585 199.229 124.708 187.499 133.986L145.312 91.821C160.86 72.1781 188.992 36.6461 210.17 9.85839C219.128 -1.46665 234.804 -2.34109 245.02 7.85358L290 52.8552L267.521 70.6638Z" fill="white"/>
</svg>
