<svg width="85" height="85" viewBox="0 0 85 85" fill="none" xmlns="http://www.w3.org/2000/svg">
<path d="M25.9259 13.6928C28.4537 16.8217 39.3262 30.2801 41.6265 33.1293L31.1718 43.3707C24.9265 38.5272 12.1873 28.6535 5.87847 23.7633C5.80444 23.7063 5.80444 23.6131 5.87318 23.5457L17.0312 12.6205C19.4215 10.279 23.3559 10.5069 25.45 13.0971L25.9259 13.6928Z" fill="white"/>
<path d="M11.329 58.7475C14.5231 56.2713 28.2618 45.6206 31.1703 43.3672L41.625 53.6086C37.7435 58.416 30.6943 67.1396 25.4273 73.6564C23.3385 76.2465 19.4146 76.4589 17.035 74.1278L5.75 63.073L11.329 58.7475Z" fill="white"/>
<path d="M57.3324 73.0529C54.8047 69.924 43.9322 56.4656 41.6318 53.6164L52.0866 43.375C58.3319 48.2186 71.0711 58.0922 77.3799 62.9824C77.4539 63.0394 77.4539 63.1327 77.3852 63.2L66.2271 74.1252C63.8369 76.4667 59.9025 76.2388 57.8084 73.6487L57.3324 73.0529Z" fill="white"/>
<path d="M71.9262 27.9892C68.7322 30.4654 54.9935 41.1161 52.085 43.3695L41.625 33.128C45.4801 28.357 52.4552 19.7266 57.7063 13.2201C59.9274 10.4694 63.8142 10.257 66.3472 12.7332L77.5 23.6636L71.9262 27.9892Z" fill="white"/>
</svg>
