<svg width="121" height="120" viewBox="0 0 121 120" fill="none" xmlns="http://www.w3.org/2000/svg">
<rect width="120" height="120" transform="translate(0.832031)" fill="white"/>
<circle cx="32.082" cy="73.75" r="17.5" fill="white"/>
<mask id="path-2-inside-1_11136_33213" fill="white">
<rect x="24.1094" y="23.2734" width="73.4559" height="73.4559" rx="4.76103"/>
</mask>
<rect x="24.1094" y="23.2734" width="73.4559" height="73.4559" rx="4.76103" stroke="black" stroke-width="14.9632" mask="url(#path-2-inside-1_11136_33213)"/>
<path d="M31.5898 52.5198H39.7516C40.1272 52.5198 40.4318 52.2152 40.4318 51.8396V40.9573C40.4318 40.5816 40.7363 40.2771 41.1119 40.2771H54.0347C54.4103 40.2771 54.7148 39.9726 54.7148 39.597V29.0547" stroke="black" stroke-width="2.04044"/>
<path d="M67.9729 27.6953V37.9615C67.9729 38.1385 67.9038 38.3086 67.7804 38.4356L56.0703 50.4802" stroke="black" stroke-width="2.04044"/>
<path d="M31.5898 79.0335H46.3068C46.4659 79.0335 46.62 78.9778 46.7422 78.8759L50.4448 75.7905C50.567 75.6886 50.7211 75.6328 50.8802 75.6328H59.8159" stroke="black" stroke-width="2.04044"/>
<path d="M81.2335 89.5804V76.2592C81.2335 76.0788 81.1618 75.9058 81.0342 75.7783L77.0117 71.7557C76.8842 71.6282 76.8125 71.4552 76.8125 71.2748V63.0547" stroke="black" stroke-width="2.04044"/>
<path d="M89.3945 103.869C89.3945 105.184 88.3287 106.25 87.014 106.25C85.6993 106.25 84.6335 105.184 84.6335 103.869L84.6335 96.7279L89.3945 96.7279L89.3945 103.869Z" fill="black"/>
<path d="M79.1953 103.869C79.1953 105.184 78.1295 106.25 76.8148 106.25C75.5001 106.25 74.4343 105.184 74.4343 103.869L74.4343 96.7279L79.1953 96.7279L79.1953 103.869Z" fill="black"/>
<path d="M68.9883 103.869C68.9883 105.184 67.9225 106.25 66.6078 106.25C65.293 106.25 64.2273 105.184 64.2273 103.869L64.2273 96.7279L68.9883 96.7279L68.9883 103.869Z" fill="black"/>
<path d="M58.7891 103.869C58.7891 105.184 57.7233 106.25 56.4085 106.25C55.0938 106.25 54.028 105.184 54.028 103.869L54.028 96.7279L58.7891 96.7279L58.7891 103.869Z" fill="black"/>
<path d="M48.5898 103.869C48.5898 105.184 47.5241 106.25 46.2093 106.25C44.8946 106.25 43.8288 105.184 43.8288 103.869L43.8288 96.7279L48.5898 96.7279L48.5898 103.869Z" fill="black"/>
<path d="M38.3828 103.869C38.3828 105.184 37.317 106.25 36.0023 106.25C34.6876 106.25 33.6218 105.184 33.6218 103.869L33.6218 96.7279L38.3828 96.7279L38.3828 103.869Z" fill="black"/>
<path d="M33.625 16.1305C33.625 14.8158 34.6908 13.75 36.0055 13.75C37.3202 13.75 38.386 14.8158 38.386 16.1305L38.386 23.2721L33.625 23.2721L33.625 16.1305Z" fill="black"/>
<path d="M43.8242 16.1305C43.8242 14.8158 44.89 13.75 46.2047 13.75C47.5195 13.75 48.5852 14.8158 48.5852 16.1305L48.5852 23.2721L43.8242 23.2721L43.8242 16.1305Z" fill="black"/>
<path d="M54.0312 16.1305C54.0312 14.8158 55.097 13.75 56.4118 13.75C57.7265 13.75 58.7923 14.8158 58.7923 16.1305L58.7923 23.2721L54.0312 23.2721L54.0312 16.1305Z" fill="black"/>
<path d="M64.2305 16.1305C64.2305 14.8158 65.2963 13.75 66.611 13.75C67.9257 13.75 68.9915 14.8158 68.9915 16.1305L68.9915 23.2721L64.2305 23.2721L64.2305 16.1305Z" fill="black"/>
<path d="M74.4297 16.1305C74.4297 14.8158 75.4955 13.75 76.8102 13.75C78.1249 13.75 79.1907 14.8158 79.1907 16.1305L79.1907 23.2721L74.4297 23.2721L74.4297 16.1305Z" fill="black"/>
<path d="M84.6367 16.1305C84.6367 14.8158 85.7025 13.75 87.0172 13.75C88.332 13.75 89.3977 14.8158 89.3977 16.1305L89.3977 23.2721L84.6367 23.2721L84.6367 16.1305Z" fill="black"/>
<path d="M16.9625 87.875C15.6478 87.875 14.582 86.8092 14.582 85.4945C14.582 84.1798 15.6478 83.114 16.9625 83.114L24.1041 83.114L24.1041 87.875L16.9625 87.875Z" fill="black"/>
<path d="M16.9625 77.6719C15.6478 77.6719 14.582 76.6061 14.582 75.2914C14.582 73.9766 15.6478 72.9108 16.9625 72.9108L24.1041 72.9108L24.1041 77.6719L16.9625 77.6719Z" fill="black"/>
<path d="M16.9625 67.4766C15.6478 67.4766 14.582 66.4108 14.582 65.096C14.582 63.7813 15.6478 62.7155 16.9625 62.7155L24.1041 62.7155L24.1041 67.4766L16.9625 67.4766Z" fill="black"/>
<path d="M16.9625 57.2578C15.6478 57.2578 14.582 56.192 14.582 54.8773C14.582 53.5626 15.6478 52.4968 16.9625 52.4968L24.1041 52.4968L24.1041 57.2578L16.9625 57.2578Z" fill="black"/>
<path d="M16.9625 47.0625C15.6478 47.0625 14.582 45.9967 14.582 44.682C14.582 43.3673 15.6478 42.3015 16.9625 42.3015L24.1041 42.3015L24.1041 47.0625L16.9625 47.0625Z" fill="black"/>
<path d="M16.9625 36.8594C15.6478 36.8594 14.582 35.7936 14.582 34.4789C14.582 33.1641 15.6478 32.0983 16.9625 32.0983L24.1041 32.0983L24.1041 36.8594L16.9625 36.8594Z" fill="black"/>
<path d="M104.702 32.125C106.016 32.125 107.082 33.1908 107.082 34.5055C107.082 35.8202 106.016 36.886 104.702 36.886L97.56 36.886L97.56 32.125L104.702 32.125Z" fill="black"/>
<path d="M104.702 42.3281C106.016 42.3281 107.082 43.3939 107.082 44.7086C107.082 46.0234 106.016 47.0892 104.702 47.0892L97.56 47.0892L97.56 42.3281L104.702 42.3281Z" fill="black"/>
<path d="M104.702 52.5234C106.016 52.5234 107.082 53.5892 107.082 54.904C107.082 56.2187 106.016 57.2845 104.702 57.2845L97.56 57.2845L97.56 52.5234L104.702 52.5234Z" fill="black"/>
<path d="M104.702 62.7422C106.016 62.7422 107.082 63.808 107.082 65.1227C107.082 66.4374 106.016 67.5032 104.702 67.5032L97.56 67.5032L97.56 62.7422L104.702 62.7422Z" fill="black"/>
<path d="M104.702 72.9375C106.016 72.9375 107.082 74.0033 107.082 75.318C107.082 76.6327 106.016 77.6985 104.702 77.6985L97.56 77.6985L97.56 72.9375L104.702 72.9375Z" fill="black"/>
<path d="M104.702 83.1406C106.016 83.1406 107.082 84.2064 107.082 85.5211C107.082 86.8359 106.016 87.9017 104.702 87.9017L97.56 87.9017L97.56 83.1406L104.702 83.1406Z" fill="black"/>
<circle cx="53.3504" cy="53.1903" r="3.06066" stroke="black" stroke-width="2.04044"/>
<circle cx="62.8778" cy="75.6434" r="3.06066" stroke="black" stroke-width="2.04044"/>
<circle cx="77.1551" cy="60.6824" r="3.06066" stroke="black" stroke-width="2.04044"/>
<path d="M80.2215 27.6953V46.3994C80.2215 46.775 79.917 47.0795 79.5414 47.0795H71.3212C71.1409 47.0795 70.9679 47.1512 70.8403 47.2787L64.0972 54.0218C63.9696 54.1494 63.898 54.3224 63.898 54.5028V59.3805C63.898 59.5609 63.8263 59.7339 63.6988 59.8614L57.9759 65.5843C57.8483 65.7119 57.6753 65.7835 57.4949 65.7835H29.8906" stroke="black" stroke-width="2.04044"/>
</svg>
