<svg width="85" height="58" viewBox="0 0 85 58" fill="none" xmlns="http://www.w3.org/2000/svg">
<g clip-path="url(#clip0_8218_38188)">
<path d="M0 0.992188H85V57.6595H0V0.992188Z" fill="#0052B4"/>
<path d="M37.089 29.3258C37.1344 29.2754 37.1792 29.2247 37.224 29.1738C37.1792 29.2249 37.1334 29.275 37.0879 29.3258H37.089ZM31.4146 36.2864L33.2338 40.0903L37.3422 39.141L35.5023 42.935L38.806 45.5549L34.6928 46.4821L34.7042 50.6985L31.4146 48.0605L28.1252 50.6985L28.1366 46.4821L24.0234 45.5549L27.3271 42.935L25.4872 39.141L29.5954 40.0903L31.4146 36.2864ZM64.2623 41.0118L65.1301 42.8262L67.0895 42.3733L66.212 44.1829L67.7878 45.4327L65.8258 45.8748L65.8312 47.8859L64.2623 46.6278L62.6935 47.8859L62.6988 45.8748L60.737 45.4327L62.3126 44.1829L61.4352 42.3733L63.3947 42.8262L64.2623 41.0118ZM56.1901 21.7642L57.0579 23.5787L59.0174 23.1257L58.1398 24.9354L59.7155 26.1852L57.7537 26.6273L57.759 28.6385L56.1901 27.3801L54.6211 28.6385L54.6266 26.6273L52.6646 26.1852L54.2403 24.9354L53.363 23.1257L55.3224 23.5787L56.1901 21.7642ZM64.2623 10.7656L65.1301 12.5802L67.0895 12.127L66.212 13.9369L67.7876 15.1865L65.8258 15.6287L65.8312 17.6398L64.2623 16.3814L62.6935 17.6398L62.6988 15.6287L60.737 15.1865L62.3126 13.9369L61.4352 12.127L63.3947 12.5802L64.2623 10.7656ZM71.3132 19.0146L72.1809 20.829L74.1402 20.3761L73.263 22.1857L74.8387 23.4353L72.8767 23.8775L72.8822 25.8887L71.3132 24.6306L69.7443 25.8887L69.7496 23.8775L67.7878 23.4353L69.3635 22.1857L68.4859 20.3761L70.4454 20.829L71.3132 19.0146ZM66.2716 28.6385L66.9539 30.739H69.1626L67.3758 32.0372L68.0584 34.1376L66.2716 32.8396L64.4844 34.1376L65.1671 32.0372L63.3803 30.739H65.5889L66.2716 28.6385Z" fill="white"/>
<path d="M42.5 0.992188V6.06446L35.0016 10.2313H42.5V20.0858H32.688L42.5 25.5369V29.3249H38.0707L25.8696 22.5472V29.3249H16.6304V21.261L2.1157 29.3249H0V24.2526L7.49843 20.0858H0V10.2313H9.81202L0 4.77834V0.992188H4.4293L16.6304 7.77011V0.992188H25.8696V9.05607L40.3843 0.992188H42.5Z" fill="white"/>
<path d="M23.9062 0.992188H18.5938V12.5024H0V17.8149H18.5938V29.3254H23.9062V17.8149H42.5V12.5024H23.9062V0.992188Z" fill="#D80027"/>
<path d="M25.8711 20.0859L42.5015 29.325V26.7125L30.5738 20.0859H25.8711Z" fill="#0052B4"/>
<path d="M25.8711 20.0859L42.5015 29.325V26.7125L30.5738 20.0859H25.8711Z" fill="white"/>
<path d="M25.8696 20.0859L42.5 29.325V26.7125L30.5723 20.0859H25.8696ZM11.9276 20.0859L0 26.7125V29.325L16.6304 20.0859H11.9276Z" fill="#D80027"/>
<path d="M16.6304 10.2313L0 0.992188V3.60478L11.9277 10.2313H16.6304Z" fill="#0052B4"/>
<path d="M16.6304 10.2313L0 0.992188V3.60478L11.9277 10.2313H16.6304Z" fill="white"/>
<path d="M16.6304 10.2313L0 0.992188V3.60478L11.9277 10.2313H16.6304ZM30.5724 10.2313L42.5 3.60478V0.992188L25.8696 10.2313H30.5724Z" fill="#D80027"/>
</g>
<defs>
<clipPath id="clip0_8218_38188">
<rect width="85" height="56.6666" fill="white" transform="translate(0 0.992188)"/>
</clipPath>
</defs>
</svg>
