<svg width="85" height="57" viewBox="0 0 85 57" fill="none" xmlns="http://www.w3.org/2000/svg">
<g clip-path="url(#clip0_8218_38051)">
<path d="M0 0H85V56.6667H0V0Z" fill="#D80027"/>
<path d="M37.5787 39.6359L35.9715 37.0511L33.0056 37.7801L34.9773 35.4439L33.3701 32.8591L36.2034 34.0024L38.1586 31.6661L37.9432 34.7148L40.7765 35.8581L37.8106 36.5872L37.5787 39.6359ZM48.1498 13.5891L46.4763 16.1408L48.3984 18.5102L45.4656 17.7148L43.7921 20.2831L43.6264 17.2343L40.6937 16.439L43.5436 15.3454L43.3779 12.2967L45.2999 14.6661L48.1498 13.5891ZM39.1362 4.21094L38.8048 7.2431L41.5884 8.50236L38.606 9.13199L38.2746 12.1642L36.7502 9.51308L33.7843 10.1427L35.8223 7.87273L34.298 5.23823L37.0816 6.48092L39.1362 4.21094ZM48.5143 26.8113L46.0455 28.6174L47.0066 31.517L44.5377 29.7275L42.0689 31.5501L42.9968 28.6339L40.528 26.861L43.5767 26.8445L44.5046 23.9283L45.4656 26.8279L48.5143 26.8113ZM19.0543 7.6739L21.9208 16.5384H31.2327L23.7103 21.9897L26.5767 30.8542L19.0543 25.3864L11.5153 30.8542L14.3984 21.9897L6.85938 16.5384H16.1878L19.0543 7.6739Z" fill="#FFDA44"/>
</g>
<defs>
<clipPath id="clip0_8218_38051">
<rect width="85" height="56.6667" fill="white"/>
</clipPath>
</defs>
</svg>
