<svg width="85" height="58" viewBox="0 0 85 58" fill="none" xmlns="http://www.w3.org/2000/svg">
<g clip-path="url(#clip0_8218_38055)">
<path fill-rule="evenodd" clip-rule="evenodd" d="M0 -1.35938H85V59.3549H0V-1.35938Z" fill="white"/>
<path fill-rule="evenodd" clip-rule="evenodd" d="M0 -1.35938H85V59.3549H0V-1.35938Z" fill="#EE1C25"/>
<path fill-rule="evenodd" clip-rule="evenodd" d="M48.5702 27.744C45.3402 25.7202 44.5226 29.3995 44.5226 27.744C44.5226 24.3926 48.1452 21.6726 52.6178 21.6726C57.0904 21.6726 60.7131 24.3926 60.7131 27.744C56.8719 27.744 56.4873 29.7678 54.6416 29.7678C52.375 29.7678 51.8002 29.7678 48.5702 27.744ZM53.6297 26.975C53.8981 26.975 54.1555 26.8684 54.3452 26.6786C54.535 26.4888 54.6416 26.2314 54.6416 25.9631C54.6416 25.6947 54.535 25.4373 54.3452 25.2475C54.1555 25.0578 53.8981 24.9512 53.6297 24.9512C53.3613 24.9512 53.104 25.0578 52.9142 25.2475C52.7244 25.4373 52.6178 25.6947 52.6178 25.9631C52.6178 26.2314 52.7244 26.4888 52.9142 26.6786C53.104 26.8684 53.3613 26.975 53.6297 26.975ZM46.3035 34.9164C47.2264 31.2209 43.4783 31.5812 45.0488 31.0712C48.2383 30.0309 51.9419 32.6376 53.3261 36.8916C54.7064 41.1416 53.2411 45.4321 50.0516 46.4683C48.8657 42.8133 46.8216 43.0764 46.2509 41.3197C45.5507 39.1623 45.3766 38.6159 46.3035 34.9164ZM48.5945 39.4902C48.6354 39.6167 48.7009 39.7339 48.7871 39.8351C48.8733 39.9363 48.9786 40.0196 49.097 40.0801C49.2154 40.1406 49.3446 40.1772 49.4771 40.1878C49.6096 40.1984 49.743 40.1828 49.8695 40.1419C49.996 40.1009 50.1132 40.0355 50.2144 39.9493C50.3156 39.863 50.3989 39.7577 50.4594 39.6393C50.5199 39.5209 50.5565 39.3918 50.5671 39.2592C50.5777 39.1267 50.5621 38.9934 50.5211 38.8669C50.4385 38.6114 50.2577 38.3992 50.0186 38.277C49.7795 38.1548 49.5016 38.1325 49.2461 38.2152C48.9907 38.2979 48.7785 38.4786 48.6563 38.7177C48.534 38.9568 48.5118 39.2347 48.5945 39.4902ZM38.775 34.9771C42.5797 34.714 41.0821 31.2573 42.0535 32.5971C44.0207 35.309 42.689 39.64 39.0704 42.2669C35.4519 44.8978 30.9226 44.825 28.9514 42.1131C32.06 39.8545 31.1776 37.9926 32.6752 36.9078C34.5088 35.5721 34.9742 35.2362 38.775 34.9771ZM35.1361 38.5714C35.0285 38.6495 34.9373 38.7481 34.8678 38.8615C34.7982 38.9749 34.7517 39.1008 34.7308 39.2322C34.71 39.3636 34.7152 39.4977 34.7462 39.6271C34.7772 39.7564 34.8334 39.8784 34.9115 39.986C34.9896 40.0937 35.0882 40.1849 35.2016 40.2544C35.315 40.324 35.4409 40.3705 35.5723 40.3913C35.7037 40.4122 35.8378 40.407 35.9672 40.376C36.0965 40.345 36.2185 40.2888 36.3261 40.2107C36.5435 40.0529 36.6893 39.8152 36.7315 39.5499C36.7736 39.2846 36.7086 39.0134 36.5508 38.796C36.393 38.5787 36.1553 38.4329 35.89 38.3907C35.6247 38.3486 35.3535 38.4136 35.1361 38.5714ZM36.399 27.8371C37.8197 31.3747 40.645 28.8814 39.6735 30.2171C37.7023 32.929 33.1731 32.9978 29.5545 30.3709C25.9359 27.74 24.6042 23.4131 26.5754 20.6971C29.68 22.9597 31.1816 21.5471 32.6752 22.6319C34.5088 23.9676 34.9742 24.3035 36.399 27.8371ZM31.8495 25.4895C31.7429 25.4017 31.6194 25.3367 31.4867 25.2985C31.354 25.2602 31.2149 25.2495 31.0779 25.2671C30.9409 25.2846 30.809 25.33 30.6902 25.4004C30.5714 25.4709 30.4683 25.5649 30.3873 25.6767C30.3062 25.7885 30.2488 25.9157 30.2188 26.0505C30.1887 26.1853 30.1866 26.3248 30.2124 26.4604C30.2383 26.5961 30.2917 26.725 30.3693 26.8392C30.4468 26.9535 30.547 27.0506 30.6635 27.1247C30.881 27.263 31.143 27.313 31.396 27.2648C31.6491 27.2165 31.8743 27.0734 32.0256 26.8649C32.1768 26.6563 32.2428 26.3979 32.2101 26.1423C32.1774 25.8867 32.0484 25.6532 31.8495 25.4895ZM42.4502 23.3685C39.5278 25.8173 42.774 27.7319 41.1995 27.2178C38.01 26.1816 36.5447 21.8952 37.925 17.6452C39.3092 13.3952 43.0128 10.7845 46.2023 11.8207C45.0164 15.4757 46.8216 16.4633 46.2509 18.22C45.5507 20.3773 45.3726 20.9238 42.4502 23.3685ZM43.28 18.3212C43.327 18.1935 43.3478 18.0576 43.3411 17.9217C43.3344 17.7858 43.3003 17.6526 43.241 17.5302C43.1817 17.4077 43.0982 17.2985 42.9957 17.209C42.8932 17.1196 42.7737 17.0517 42.6443 17.0095C42.5149 16.9673 42.3784 16.9516 42.2428 16.9634C42.1073 16.9751 41.9755 17.0141 41.8553 17.078C41.7352 17.1419 41.6292 17.2294 41.5436 17.3352C41.458 17.441 41.3947 17.5629 41.3573 17.6938C41.2855 17.9455 41.314 18.2154 41.4369 18.4465C41.5598 18.6777 41.7676 18.8522 42.0165 18.9335C42.2654 19.0147 42.5361 18.9963 42.7717 18.8821C43.0073 18.7679 43.1895 18.5668 43.28 18.3212Z" fill="white"/>
</g>
<defs>
<clipPath id="clip0_8218_38055">
<rect width="85" height="56.6667" fill="white" transform="translate(0 0.664062)"/>
</clipPath>
</defs>
</svg>
