<svg width="85" height="57" viewBox="0 0 85 57" fill="none" xmlns="http://www.w3.org/2000/svg">
<g clip-path="url(#clip0_8218_38208)">
<path d="M0 0H85V56.6667H0V0Z" fill="white"/>
<path d="M14.0156 17.8594L21.8739 6.07199ZM16.9625 19.8239L24.8207 8.03655ZM19.9093 21.7885L27.7676 10.0011ZM57.236 46.6729L65.0943 34.8855ZM60.1829 48.6375L68.0411 36.8501ZM63.1297 50.602L70.988 38.8147Z" fill="black"/>
<path d="M14.0156 17.8594L21.8739 6.07199M16.9625 19.8239L24.8207 8.03655M19.9093 21.7885L27.7676 10.0011M57.236 46.6729L65.0943 34.8855M60.1829 48.6375L68.0411 36.8501M63.1297 50.602L70.988 38.8147" stroke="black" stroke-width="4.11025"/>
<path d="M59.1992 39.4609L69.022 46.0095Z" fill="black"/>
<path d="M59.1992 39.4609L69.022 46.0095" stroke="white" stroke-width="2.05513"/>
<path d="M54.2846 36.1869C58.6246 29.6769 56.8654 20.8813 50.3554 16.5413C43.8454 12.2013 35.0498 13.9604 30.7098 20.4704C26.3698 26.9804 28.129 35.7761 34.639 40.1161C41.1489 44.456 49.9446 42.6969 54.2846 36.1869Z" fill="#CA163A"/>
<path d="M30.7098 20.4704C28.5409 23.7237 29.4211 28.1244 32.6744 30.2932C35.9277 32.4621 40.3283 31.582 42.4972 28.3287C44.6661 25.0753 49.0667 24.1952 52.32 26.3641C55.5733 28.533 56.4535 32.9336 54.2846 36.1869C49.9468 42.6935 41.1456 44.4538 34.639 40.1161C28.1323 35.7783 26.3721 26.9771 30.7098 20.4704Z" fill="#0E4896"/>
<path d="M21.8661 50.5927L14.0078 38.8053ZM24.8127 48.628L16.9545 36.8407ZM27.7596 46.6635L19.9013 34.8761ZM65.0864 21.779L57.2281 9.99167ZM68.0333 19.8145L60.175 8.02713ZM70.9801 17.8499L63.1219 6.0625Z" fill="black"/>
<path d="M21.8661 50.5927L14.0078 38.8053M24.8127 48.628L16.9545 36.8407M27.7596 46.6635L19.9013 34.8761M65.0864 21.779L57.2281 9.99167M68.0333 19.8145L60.175 8.02713M70.9801 17.8499L63.1219 6.0625" stroke="black" stroke-width="4.11025"/>
<path d="M19.4141 43.7192L22.3609 41.7548ZM59.1925 17.2003L62.6344 14.9056ZM65.5812 12.9411L68.5281 10.9766Z" fill="black"/>
<path d="M19.4141 43.7192L22.3609 41.7548M59.1925 17.2003L62.6344 14.9056M65.5812 12.9411L68.5281 10.9766" stroke="white" stroke-width="2.05513"/>
</g>
<defs>
<clipPath id="clip0_8218_38208">
<rect width="85" height="56.6667" fill="white"/>
</clipPath>
</defs>
</svg>
