<svg width="85" height="57" viewBox="0 0 85 57" fill="none" xmlns="http://www.w3.org/2000/svg">
<g clip-path="url(#clip0_8218_38202)">
<path d="M0 0.320312H85V56.9858H0V0.320312Z" fill="white"/>
<path d="M85 0.320312V28.653H42.5L0 0.320312H85Z" fill="#0052B4"/>
<path d="M85 28.6562V56.989H0L42.5 28.6562H85Z" fill="#D80027"/>
<path d="M26.8804 28.6551L22.3502 26.5243L24.7627 22.1368L19.8433 23.0778L19.22 18.1084L15.7934 21.7633L12.367 18.1084L11.7436 23.0778L6.8244 22.1367L9.23678 26.5241L4.70654 28.6551L9.23678 30.7859L6.8244 35.1734L11.7439 34.2324L12.367 39.2017L15.7934 35.5469L19.22 39.2017L19.8433 34.2324L24.7626 35.1735L22.35 30.7862L26.8804 28.6551ZM3.61848 5.67969L5.12606 7.78742L7.59621 7.00482L6.05758 9.08998L7.56517 11.1974L5.10664 10.3786L3.56801 12.4636L3.58743 9.87241L1.12891 9.05329L3.59922 8.27103L3.61848 5.67969ZM3.61848 44.8466L5.12606 46.9543L7.59621 46.1717L6.05758 48.2569L7.56517 50.3645L5.10664 49.5455L3.56801 51.6303L3.58743 49.0393L1.12891 48.2202L3.59922 47.4379L3.61848 44.8466ZM34.93 25.2632L33.4224 27.3708L30.9523 26.5884L32.4909 28.6734L30.9833 30.7811L33.4419 29.9621L34.9805 32.047L34.9611 29.456L37.4196 28.6368L34.9493 27.8544L34.93 25.2632Z" fill="#FFDA44"/>
</g>
<defs>
<clipPath id="clip0_8218_38202">
<rect width="85" height="56.6666" fill="white" transform="translate(0 0.320312)"/>
</clipPath>
</defs>
</svg>
