<svg width="85" height="58" viewBox="0 0 85 58" fill="none" xmlns="http://www.w3.org/2000/svg">
<g clip-path="url(#clip0_8218_38156)">
<path d="M0 0.65625H85V57.3217H0V0.65625Z" fill="white"/>
<path d="M0 0.65625H85V28.989H0V0.65625Z" fill="#D80027"/>
<path d="M13.8596 14.8263C13.8596 10.6983 16.7609 7.24985 20.635 6.40367C20.0281 6.2706 19.4086 6.20336 18.7872 6.20312C14.0246 6.20312 10.1641 10.0637 10.1641 14.8261C10.1641 19.5886 14.0248 23.4493 18.7872 23.4493C19.4218 23.4493 20.0395 23.3788 20.635 23.2488C16.7609 22.4029 13.8596 18.9545 13.8596 14.8263ZM24.9466 6.81921L25.5582 8.70133H27.5373L25.936 9.8646L26.5476 11.7467L24.9466 10.5836L23.3454 11.7467L23.9571 9.8646L22.3559 8.70133H24.335L24.9466 6.81921Z" fill="white"/>
<path d="M20.1454 10.5156L20.7568 12.3977H22.7359L21.1346 13.561L21.7463 15.4431L20.1454 14.28L18.5441 15.4431L19.1559 13.561L17.5547 12.3977H19.5338L20.1454 10.5156ZM29.7467 10.5156L30.3583 12.3977H32.3374L30.7362 13.561L31.3478 15.4431L29.7467 14.28L28.1457 15.4431L28.7574 13.561L27.1562 12.3977H29.1353L29.7467 10.5156ZM27.8988 16.0591L28.5104 17.9412H30.4895L28.8884 19.1044L29.5 20.9866L27.8988 19.8235L26.2979 20.9866L26.9095 19.1044L25.3084 17.9412H27.2874L27.8988 16.0591ZM21.9931 16.0591L22.6046 17.9412H24.5836L22.9826 19.1044L23.5942 20.9866L21.9931 19.8235L20.3921 20.9866L21.0037 19.1044L19.4026 17.9412H21.3815L21.9931 16.0591Z" fill="white"/>
</g>
<defs>
<clipPath id="clip0_8218_38156">
<rect width="85" height="56.6666" fill="white" transform="translate(0 0.65625)"/>
</clipPath>
</defs>
</svg>
