<svg width="85" height="57" viewBox="0 0 85 57" fill="none" xmlns="http://www.w3.org/2000/svg">
<g clip-path="url(#clip0_8218_38060)">
<path d="M0 0.328125H85V56.9936H0V0.328125Z" fill="#D80027"/>
<path d="M0 0.328125H42.5V28.6609H0V0.328125Z" fill="#0052B4"/>
<path d="M30.953 14.4941L26.9891 16.3586L29.0998 20.1977L24.7955 19.3741L24.25 23.7224L21.2519 20.5245L18.2537 23.7224L17.7083 19.3741L13.404 20.1976L15.5147 16.3585L11.5508 14.4941L15.5147 12.6296L13.404 8.79047L17.7083 9.61391L18.2538 5.26562L21.2519 8.46358L24.2501 5.26562L24.7955 9.61391L29.1 8.79047L26.9891 12.6296L30.953 14.4941Z" fill="white"/>
<path d="M21.249 19.3106C23.9085 19.3106 26.0645 17.1546 26.0645 14.4951C26.0645 11.8356 23.9085 9.67969 21.249 9.67969C18.5895 9.67969 16.4336 11.8356 16.4336 14.4951C16.4336 17.1546 18.5895 19.3106 21.249 19.3106Z" fill="#0052B4"/>
<path d="M21.2505 17.7119C19.4754 17.7119 18.0312 16.2675 18.0312 14.4926C18.0312 12.7176 19.4756 11.2734 21.2505 11.2734C23.0255 11.2734 24.4697 12.7178 24.4697 14.4926C24.4697 16.2675 23.0255 17.7119 21.2505 17.7119Z" fill="white"/>
</g>
<defs>
<clipPath id="clip0_8218_38060">
<rect width="85" height="56.6666" fill="white" transform="translate(0 0.328125)"/>
</clipPath>
</defs>
</svg>
