<svg width="85" height="57" viewBox="0 0 85 57" fill="none" xmlns="http://www.w3.org/2000/svg">
<g clip-path="url(#clip0_8218_38139)">
<path d="M0 0H85V56.6673H0V0Z" fill="white"/>
<path d="M47.8125 0H37.1875V23.0207H0V33.6457H37.1875V56.6664H47.8125V33.6457H85V23.0207H47.8125V0Z" fill="#D80027"/>
<path d="M65.3736 38.1875L84.9992 49.0907V38.1875H65.3736ZM51.7383 38.1875L84.9992 56.6657V51.4405L61.1439 38.1875H51.7383ZM76.1396 56.6657L51.7383 43.1082V56.6657H76.1396Z" fill="#0052B4"/>
<path d="M51.7383 38.1875L84.9992 56.6657V51.4405L61.1439 38.1875H51.7383Z" fill="white"/>
<path d="M51.7383 38.1875L84.9992 56.6657V51.4405L61.1439 38.1875H51.7383Z" fill="#D80027"/>
<path d="M14.998 38.1875L0 46.5198V38.1875H14.998ZM33.2609 40.5373V56.6659H4.2319L33.2609 40.5373Z" fill="#0052B4"/>
<path d="M23.8553 38.1875L0 51.4405V56.6657L33.2609 38.1875H23.8553Z" fill="#D80027"/>
<path d="M19.6255 18.4782L0 7.57496V18.4782H19.6255ZM33.2609 18.4782L0 0V5.22518L23.8553 18.4782H33.2609ZM8.85959 0L33.2609 13.5575V0H8.85959Z" fill="#0052B4"/>
<path d="M33.2609 18.4782L0 0V5.22518L23.8553 18.4782H33.2609Z" fill="white"/>
<path d="M33.2609 18.4782L0 0V5.22518L23.8553 18.4782H33.2609Z" fill="#D80027"/>
<path d="M70.0012 18.4784L84.9992 10.146V18.4784H70.0012ZM51.7383 16.1286V0H80.7673L51.7383 16.1286Z" fill="#0052B4"/>
<path d="M61.1439 18.4782L84.9992 5.22518V0L51.7383 18.4782H61.1439Z" fill="#D80027"/>
</g>
<defs>
<clipPath id="clip0_8218_38139">
<rect width="85" height="56.6666" fill="white"/>
</clipPath>
</defs>
</svg>
