<svg width="85" height="57" viewBox="0 0 85 57" fill="none" xmlns="http://www.w3.org/2000/svg">
<g clip-path="url(#clip0_8218_38003)">
<path d="M0 0H85V56.6667H0V0Z" fill="white"/>
<path d="M0 0H85V4.3577H0V0ZM0 8.7154H85V13.0731H0V8.7154ZM0 17.4308H85V21.7885H0V17.4308ZM0 26.1462H85V30.5039H0V26.1462ZM0 34.8782H85V39.2359H0V34.8782ZM0 43.5936H85V47.9513H0V43.5936ZM0 52.309H85V56.6667H0V52.309Z" fill="#D80027"/>
<path d="M0 0H42.5V30.5039H0V0Z" fill="#2E52B2"/>
<path d="M7.91879 23.0158L7.25602 20.8949L6.52698 23.0158H4.33984L6.11275 24.2916L5.44998 26.4125L7.25602 25.1035L9.01236 26.4125L8.33302 24.2916L10.1391 23.0158H7.91879ZM17.2473 23.0158L16.5679 20.8949L15.872 23.0158H13.6849L15.4578 24.2916L14.795 26.4125L16.5679 25.1035L18.3574 26.4125L17.6946 24.2916L19.4675 23.0158H17.2473ZM26.6089 23.0158L25.8964 20.8949L25.2336 23.0158H22.9968L24.8194 24.2916L24.1235 26.4125L25.8964 25.1035L27.719 26.4125L27.0231 24.2916L28.796 23.0158H26.6089ZM35.9207 23.0158L35.258 20.8949L34.5621 23.0158H32.3584L34.1478 24.2916L33.4851 26.4125L35.258 25.1035L37.0474 26.4125L36.335 24.2916L38.1576 23.0158H35.9207ZM16.5679 12.4778L15.872 14.5986H13.6849L15.4578 15.9076L14.795 17.9953L16.5679 16.7029L18.3574 17.9953L17.6946 15.9076L19.4675 14.5986H17.2473L16.5679 12.4778ZM7.25602 12.4778L6.52698 14.5986H4.33984L6.11275 15.9076L5.44998 17.9953L7.25602 16.7029L9.01236 17.9953L8.33302 15.9076L10.1391 14.5986H7.91879L7.25602 12.4778ZM25.8964 12.4778L25.2336 14.5986H22.9968L24.8194 15.9076L24.1235 17.9953L25.8964 16.7029L27.719 17.9953L27.0231 15.9076L28.796 14.5986H26.6089L25.8964 12.4778ZM35.258 12.4778L34.5621 14.5986H32.3584L34.1478 15.9076L33.4851 17.9953L35.258 16.7029L37.0474 17.9953L36.335 15.9076L38.1576 14.5986H35.9207L35.258 12.4778ZM7.25602 4.09375L6.52698 6.18147H4.33984L6.11275 7.49044L5.44998 9.59472L7.25602 8.28576L9.01236 9.59472L8.33302 7.49044L10.1391 6.18147H7.91879L7.25602 4.09375ZM16.5679 4.09375L15.872 6.18147H13.6849L15.4578 7.49044L14.795 9.59472L16.5679 8.28576L18.3574 9.59472L17.6946 7.49044L19.4675 6.18147H17.2473L16.5679 4.09375ZM25.8964 4.09375L25.2336 6.18147H22.9968L24.8194 7.49044L24.1235 9.59472L25.8964 8.28576L27.719 9.59472L27.0231 7.49044L28.796 6.18147H26.6089L25.8964 4.09375ZM35.258 4.09375L34.5621 6.18147H32.3584L34.1478 7.49044L33.4851 9.59472L35.258 8.28576L37.0474 9.59472L36.335 7.49044L38.1576 6.18147H35.9207L35.258 4.09375Z" fill="white"/>
</g>
<defs>
<clipPath id="clip0_8218_38003">
<rect width="85" height="56.6667" fill="white"/>
</clipPath>
</defs>
</svg>
