<svg width="85" height="57" viewBox="0 0 85 57" fill="none" xmlns="http://www.w3.org/2000/svg">
<g clip-path="url(#clip0_8218_38177)">
<path d="M0 0.320312H85V56.9858H0V0.320312Z" fill="#D80027"/>
<path d="M0 0.320312H42.5V28.653H0V0.320312Z" fill="#0052B4"/>
<path d="M30.953 14.4863L26.9891 16.3508L29.0998 20.1899L24.7955 19.3663L24.25 23.7146L21.2519 20.5166L18.2537 23.7146L17.7083 19.3663L13.404 20.1898L15.5147 16.3506L11.5508 14.4863L15.5147 12.6218L13.404 8.78266L17.7083 9.60609L18.2538 5.25781L21.2519 8.45577L24.2501 5.25781L24.7955 9.60609L29.1 8.78266L26.9891 12.6218L30.953 14.4863Z" fill="white"/>
<path d="M21.249 19.3028C23.9085 19.3028 26.0645 17.1468 26.0645 14.4873C26.0645 11.8278 23.9085 9.67188 21.249 9.67188C18.5895 9.67188 16.4336 11.8278 16.4336 14.4873C16.4336 17.1468 18.5895 19.3028 21.249 19.3028Z" fill="#0052B4"/>
<path d="M21.2505 17.704C19.4754 17.704 18.0312 16.2597 18.0312 14.4848C18.0312 12.7098 19.4756 11.2656 21.2505 11.2656C23.0255 11.2656 24.4697 12.71 24.4697 14.4848C24.4697 16.2597 23.0255 17.704 21.2505 17.704Z" fill="white"/>
</g>
<defs>
<clipPath id="clip0_8218_38177">
<rect width="85" height="56.6666" fill="white" transform="translate(0 0.320312)"/>
</clipPath>
</defs>
</svg>
